<svg id="mirino" xmlns="http://www.w3.org/2000/svg" viewBox="0 0 1920 1254.1"><title>Tavola disegno 1</title><circle cx="961.1" cy="627" r="520" fill="none" stroke="#b3b3b3" stroke-miterlimit="10" stroke-width="1.31"/><circle cx="961.1" cy="627" r="520" fill="none" stroke="#b3b3b3" stroke-miterlimit="10" stroke-width="1.31"/><circle cx="961.1" cy="627" r="585.3" fill="none" stroke="#b3b3b3" stroke-miterlimit="10" stroke-width="1.47"/><path d="M961.7,1254.1h-.4v-18.2h.4Zm45.1-1.6-1.3-18.2h.4l1.3,18.2Zm-90.5,0h-.4l1.3-18.2h.4Zm135.7-4.9-2.6-18h.4l2.6,18Zm-180.9,0h-.3l2.5-18h.4Zm225.5-8.1-3.8-17.8h.3l4,17.8Zm-270.3,0H826l3.8-17.8h.4Zm-44-11.4H782l5.2-17.4h.3Zm358.3,0-5.3-17.4h.3l5.3,17.4Zm43-14.5-6.4-17h.3l6.5,17Zm-444.5,0h-.4l6.5-17h.3Zm486.4-17.6-7.7-16.5.4-.2,7.7,16.5Zm-528.4-.1h-.3l7.6-16.5.4.2Zm568.8-20.4-8.9-15.9.3-.2,8.8,15.9Zm-609.3-.3-.3-.2,8.8-15.9.4.2Zm648.2-23.2-10-15.2.3-.2,10,15.2Zm-687.1-.4-.3-.2,10-15.2.3.2Zm724.1-25.9-11.2-14.4.4-.3,11,14.5Zm-761.3-.5-.3-.2,11-14.5.3.2Zm796.3-28.3-12.1-13.6.3-.3,12,13.7Zm-831.4-.6-.2-.2,12-13.6.3.3Zm864.3-30.7-13-12.7.3-.3,13,12.7Zm-897.2-.7-.3-.3,13-12.7.2.2Zm927.8-32.9-13.8-11.8.2-.2,13.9,11.7Zm-958.3-.7-.2-.3,13.9-11.8.3.3Zm986.4-35-14.6-10.8.2-.2,14.7,10.7ZM454,995.6l-.2-.3,14.7-10.7.2.3Zm1039.9-37-15.4-9.7.2-.3,15.4,9.6Zm-1065.3-.6-.2-.3,15.5-9.6.2.3Zm1088-38.9-16.1-8.4.2-.4,16.1,8.5Zm-1110.5-.4v-.3l16.1-8.5.2.4Zm1130.3-40.6-16.7-7.3.2-.4,16.7,7.3Zm-1149.9-.2-.2-.4,16.7-7.2v.3Zm1166.6-42.1-17.1-6.1v-.3l17.2,6Zm-1183.3-.1v-.4l17.2-6v.3Zm-13.5-43.4v-.3l17.5-4.8v.4Zm1210.4,0-17.6-4.7v-.4l17.5,4.8ZM346,747.8v-.4l17.9-3.4v.3Zm1231-.1-17.9-3.4V744l17.9,3.5Zm7.1-44.8-18.1-2.2v-.4l18.1,2.2Zm-1245.2,0v-.4l18.1-2.1v.3Zm1249-45.3-18.2-.9v-.4l18.2.9Zm-1252.8,0v-.4l18.2-.9v.4Zm17.6-45-18.2-.4v-.3l18.2.4Zm1217.5-.7v-.4l18.2-.4v.4ZM355.3,568.5l-18.1-1.8v-.3l18.1,1.7Zm1212.3-.6v-.4l18.1-1.8v.4ZM361.1,524.8l-18-3v-.4l17.9,3Zm1200.7-.6v-.4l17.9-3.1v.3ZM370,481.5l-17.7-4.3v-.4l17.7,4.4Zm1182.8-.7v-.3l17.7-4.4v.4ZM382.1,439.1l-17.3-5.6v-.3l17.3,5.6Zm1158.6-.7v-.3l17.3-5.7v.4ZM397.3,397.5l-16.9-6.8v-.4l16.8,6.9Zm1128.3-.4v-.3l16.8-6.9v.3ZM415.4,357.2l-16.3-8.1.2-.3,16.3,8.1Zm1092-.2-.2-.3,16.3-8.1.2.3Zm-1071-38.6L420.8,309l.2-.3,15.7,9.2Zm1050,0-.2-.3,15.7-9.2.2.3Zm-23.8-37.2-.2-.2,14.9-10.4.2.3Zm-1002.5,0-14.9-10.4.2-.2,15,10.3Zm976.2-35.2-.3-.3,14.2-11.4.2.2Zm-949.7-.2-14.2-11.4.2-.3,14.2,11.4Zm920.8-33.2-.2-.2,13.3-12.4.3.3Zm-891.9-.2-13.3-12.4.3-.3L515.8,212Zm860.8-31-.3-.3,12.4-13.3.2.2ZM546.8,181l-12.4-13.3.3-.3L547,180.8ZM1343,152.3l-.3-.2,11.4-14.2.3.2Zm-762.8-.1L568.8,138l.3-.2L580.4,152Zm727.5-26.3-.4-.3,10.4-14.9h.2Zm-692.1-.1-10.4-14.9.3-.2,10.3,15Zm37.1-23.7-9.2-15.7.3-.2,9.3,15.7Zm617.7,0-.3-.2,9.2-15.7.3.2Zm-579-20.9-8.1-16.3.3-.2,8.1,16.3Zm540.1-.1h-.2l8-16.3.4.2Zm-500-18-6.9-16.8h.4l6.9,16.9Zm459.7-.2h-.3l6.8-16.9h.4Zm-418.3-15-5.6-17.3h.3l5.7,17.3Zm376.8-.2h-.3l5.5-17.3h.3ZM815.3,35.7,810.9,18h.4l4.2,17.7Zm291.8-.1h-.4l4.4-17.7h.3ZM858.5,26.7,855.4,8.8h.4l3.1,17.9Zm205.5-.1h-.4l3.1-17.9h.3ZM887.6,22.5,885.4,4.4h.4L888,22.4Zm132.6-1.6h-.4l1.8-18.1h.3Zm-88.6-2.1L930.7.6h.4l.9,18.2Zm44.5-.6h-.4L976.1,0h.4Z" fill="#b3b3b3"/><path d="M961.5,8.9h-.4v9h.4v-9Zm-14.9.2h-.4l.2,9h.4l-.2-9Zm-29.8,1.4h-.4l.6,9h.4l-.6-9Zm-14.9,1.2h-.4l.9,9h.4l-.9-9Zm-29.7,3.6h-.4l1.3,8.9h.4l-1.3-8.9Zm-29.5,5h-.4l1.7,8.8h.4l-1.7-8.8Zm-14.6,3h-.4l1.9,8.8h.4l-1.9-8.8Zm-29,7.1h-.4l2.4,8.7h.3l-2.4-8.7Zm-14.4,4.1h-.3l2.6,8.6h.3l-2.6-8.6Zm-28.4,9.2H756l3,8.5h.3l-3-8.5Zm-14,5.1h-.3l3.2,8.4h.3l-3.2-8.4ZM714.6,60.2h-.3l3.6,8.2h.3l-3.6-8.2ZM701,66.3h-.3l3.8,8.2.3-.2L701,66.3ZM674.2,79.6l-.3.2,4.2,8,.3-.2-4.2-8Zm-13.1,7.1h-.3l4.4,7.9.3-.2-4.4-7.9Zm-25.7,15.2h0l-.3.2,4.8,7.6.3-.2-4.8-7.6Zm-12.6,8h-.3l4.9,7.5.3-.2-4.9-7.5Zm-24.6,17-.3.2h0l5.3,7.3.3-.2-5.3-7.3Zm-12,8.9-.2.2h-.1l5.5,7.1.3-.2-5.5-7.1ZM563,154.6h0l-.2.2,5.8,6.9.3-.2-5.8-6.9Zm-11.3,9.8-.2.2h-.1l6,6.7.3-.2-6-6.7Zm-21.9,20.3h0l-.2.2h0l6.3,6.4.3-.3-6.3-6.4Zm-10.6,10.6-.2.2h0l6.4,6.3.3-.3-6.4-6.3Zm-20.3,21.9-.2.3,6.7,6,.2-.3-6.7-6Zm-9.8,11.3-.2.2h-.1l6.9,5.8.2-.3-6.9-5.8Zm-18.7,23.3-.2.2h-.1l7.2,5.5.2-.3-7.1-5.5Zm-8.9,12h0v.2h0l7.3,5.3.2-.3-7.3-5.3Zm-17,24.6h-.2l7.5,4.9.2-.3-7.5-4.9Zm-8,12.6-.2.3,7.6,4.8.2-.3-7.6-4.8Zm-15.2,25.7h-.1v.2l7.9,4.4.2-.3-7.9-4.4Zm-7.1,13.1-.2.3,8,4.2.2-.3-8-4.2Zm-13.3,26.8v.3h0l8.2,3.8.2-.3-8.2-3.8Zm-6.1,13.6v.2h0l8.3,3.6v-.3l-8.2-3.6Zm-11.3,27.7v.3l8.4,3.2V411l-8.4-3.2Zm-5.1,14v.2h-.1l8.5,3v-.3l-8.5-3Zm-9.2,28.4v.3l8.6,2.6v-.3l-8.6-2.6ZM365,464.6v.3h0l8.7,2.4v-.3l-8.7-2.4Zm-7.1,29v.3h0l8.8,1.9v-.4l-8.8-1.9Zm-3,14.6h0v.2l8.8,1.7v-.4l-8.8-1.7Zm-5,29.5h0v.4l8.9,1.3v-.4l-8.9-1.3Zm-2,14.8h0v.2h0l8.9,1.1v-.4l-8.9-1.1Zm-2.8,29.7h0v.3l9,.6v-.4l-9-.6Zm-.9,14.9v.4l9,.4v-.4l-9-.4Zm8.3,29.9h0Zm-9,0h0v.2h9V627h-9Zm9.2,14.7-9,.2v.4l9-.2v-.4Zm1.4,29.4-9,.6h0v.3l9-.6v-.4Zm1.2,14.7-9,.9h0v.3l9-.9v-.4Zm3.5,29.2-8.9,1.3h0v.3l8.9-1.3V715Zm2.3,14.5-8.9,1.5h0v.3l8.9-1.5v-.4Zm5.6,28.9-8.8,1.9v.3h0l8.8-1.9v-.4Zm3.3,14.3-8.7,2.1v.4l8.7-2.2v-.3Zm7.7,28.4-8.6,2.6h0v.3l8.6-2.6v-.3Zm4.4,14.1-8.6,2.8v.2h0l8.6-2.8v-.3Zm9.8,27.8-8.4,3.2h0v.3l8.4-3.2V843Zm5.4,13.7-8.3,3.4v.3l8.3-3.4v-.3Zm11.8,27-8.2,3.8v.2h.1l8.2-3.8-.2-.3Zm6.4,13.3-8.1,4h0v.3l8.1-4-.2-.3ZM429.1,923l-7.9,4.4h0l.2.3,7.9-4.4-.2-.3Zm7.3,12.8-7.8,4.6.2.3h0l7.8-4.6-.2-.3Zm15.6,25-7.5,4.9h0l.2.3,7.5-4.9-.2-.3Zm8.2,12.2-7.4,5.1.2.2h.1l7.4-5.1-.2-.3Zm17.3,23.8-7.1,5.5.2.3h0l7.1-5.5-.2-.3Zm9.1,11.6-7,5.6.2.3,7-5.6-.2-.3Zm19,22.5-6.7,6,.2.2h0l6.7-6-.2-.3Zm9.9,10.9-6.6,6.1h.1l.2.2,6.6-6.1-.2-.3Zm20.6,21.1-6.3,6.4.3.3,6.3-6.4-.3-.3Zm10.7,10.2-6.1,6.6.3.2,6.1-6.6-.3-.2Zm22,19.5-5.8,6.9.3.2h0l5.8-6.9-.3-.2Zm11.4,9.4-5.6,7h.3l5.6-7-.3-.2Zm23.4,17.9-5.3,7.3.3.2,5.3-7.3-.3-.2Zm12,8.5-5.1,7.4h.3l5.1-7.4-.3-.2Zm24.6,16.2-4.8,7.6h.3l4.8-7.6-.3-.2Zm12.6,7.6-4.6,7.8h.1l.3.2,4.6-7.8-.3-.2Zm25.7,14.3-4.2,8h.3l4.2-8-.3-.2Zm13.1,6.7-4,8.1h.3l4-8.1-.3-.2Zm26.7,12.4-3.6,8.2h.3l3.6-8.3Zm13.6,5.7-3.4,8.3h.3l3.4-8.3Zm27.5,10.4-3,8.5h.3l3-8.5Zm13.9,4.7-2.8,8.6h.3l2.8-8.6Zm28.2,8.4-2.4,8.7h.4l2.4-8.7Zm14.2,3.7-2.1,8.7h.4l2.1-8.7Zm28.7,6.3-1.7,8.8h.4l1.7-8.8Zm14.5,2.6-1.5,8.9h.4l1.5-8.9Zm29.1,4.2-1.1,8.9h.4l1.1-8.9Zm14.6,1.6-.9,9h.4l.9-9Zm29.4,2.1-.4,9h.4l.4-9Zm14.7.5-.2,9h.4l.2-9Zm29.8,0h-.4l.2,9h.4l-.2-9Zm14.7-.5h-.4l.4,9h.4l-.4-9Zm29.4-2.1h-.4l.9,9h.4l-.9-9Zm14.6-1.6h-.4l1.1,8.9h.4l-1.1-8.9Zm29.1-4.2h-.4l1.5,8.9h.4l-1.5-8.9Zm14.5-2.6h-.4l1.7,8.8h.4l-1.7-8.8Zm28.7-6.3h-.3l2.1,8.7h.4l-2.2-8.7Zm14.2-3.7h-.3l2.4,8.7h.4l-2.4-8.7Zm28.2-8.4h-.3l2.8,8.6h.3l-2.8-8.6Zm13.9-4.7h-.3l3,8.5h.3l-3-8.5Zm27.5-10.5h-.3l3.4,8.3h.3l-3.4-8.3Zm13.6-5.7h-.3l3.6,8.2h.3l-3.6-8.2Zm26.7-12.4-.3.2,4,8.1h.3l-4-8.1Zm13.1-6.7-.3.2,4.2,8,.3-.2h0l-4.2-8Zm25.7-14.3-.3.2,4.6,7.8.3-.2h.1l-4.6-7.7Zm12.6-7.6-.3.2,4.8,7.6h.3l-4.8-7.6Zm24.6-16.2-.3.2,5.1,7.4.3-.2h0l-5.1-7.4Zm12-8.5-.3.2,5.3,7.3.2-.2h0l-5.3-7.3Zm23.4-17.9-.3.2,5.6,7,.2-.2h0l-5.6-7Zm11.4-9.4-.3.2,5.8,6.9h.3l-5.8-6.9Zm22-19.5-.3.2,6.1,6.6.3-.2-6.1-6.6Zm10.7-10.2-.3.3,6.3,6.4h.1l.2-.2-6.3-6.4Zm20.6-21.1-.2.3,6.6,6.1.2-.2h.1l-6.6-6.1Zm9.9-10.9-.2.3,6.7,6,.2-.3-6.7-6Zm19-22.5-.2.3,7,5.6.2-.3-7-5.6Zm9.1-11.6-.2.3,7.1,5.5.2-.3-7.2-5.5Zm17.3-23.8-.2.3,7.4,5.1.2-.3-7.4-5.1Zm8.2-12.2-.2.3,7.5,4.9.2-.2h0l-7.5-4.9Zm15.5-25-.2.3,7.8,4.6h0V940l-7.8-4.6Zm7.3-12.8-.2.3,7.9,4.4h0v-.3l-7.9-4.4Zm13.7-26.1-.2.3,8.1,4v-.3h0l-8.1-4Zm6.4-13.3-.2.3,8.2,3.8v-.2h.1l-8.2-3.8Zm11.8-27v.3l8.3,3.4v-.3h0l-8.3-3.4Zm5.4-13.7v.3l8.4,3.2v-.3l-8.4-3.2Zm9.8-27.8v.3l8.6,2.8h.1l-8.6-2.8Zm4.4-14.1v.3l8.6,2.6v-.2h.1l-8.6-2.6Zm7.7-28.4v.3l8.7,2.1v-.4l-8.7-2.1Zm3.3-14.3v.3l8.8,1.9h0V760l-8.8-1.9Zm5.6-28.9v.4l8.9,1.5v-.4l-8.9-1.5Zm2.3-14.5v.4l8.9,1.3h0v-.2h0l-8.9-1.3Zm3.5-29.2v.4l9,.9v-.3h0l-9-.9Zm1.2-14.7v.4l9,.6v-.2h0l-9-.6Zm1.4-29.4v.4l9,.2v-.2h0l-9-.2Zm.2-14.4h0Zm9,0h0Zm0-.4h-9v.4h9v-.2Zm-.7-29.9-9,.4v.4l9-.4v-.4Zm-.9-14.9-9,.6v.4l9-.6v-.4Zm-2.9-29.7-8.9,1.1v.4l8.9-1.1v-.4Zm-2-14.8-8.9,1.3v.4l8.9-1.3h0v-.3Zm-5-29.4-8.8,1.7v.4l8.8-1.7v-.4Zm-3-14.6-8.8,1.9v.3l8.8-1.9v-.3Zm-7.1-29-8.7,2.4v.3l8.7-2.4v-.4Zm-4.1-14.4-8.6,2.6v.3l8.6-2.6v-.3Zm-9.2-28.4-8.5,3v.3l8.5-3v-.3Zm-5.1-14-8.4,3.2v.3l8.4-3.2h0v-.2Zm-11.3-27.7-8.2,3.6v.3l8.3-3.6v-.3Zm-6.1-13.6-8.2,3.8.2.3,8.2-3.8v-.2Zm-13.3-26.8-8,4.2.2.3,8-4.2-.2-.3Zm-7.1-13.1-7.9,4.4.2.3,7.9-4.4h-.1v-.2Zm-15.2-25.7-7.6,4.8.2.3,7.6-4.8h0v-.2Zm-8.1-12.6-7.5,4.9.2.3,7.5-4.9h-.1V288Zm-17-24.6-7.3,5.3.2.3,7.3-5.3h0l-.2-.3Zm-8.9-12-7.1,5.5.2.3,7.1-5.5-.2-.3Zm-18.7-23.3-6.9,5.8.2.3,6.9-5.8-.2-.2Zm-9.8-11.3-6.7,6,.2.3,6.7-6h-.2ZM1403.5,195l-6.4,6.3.3.3,6.4-6.3h-.3ZM1393,184.5l-6.3,6.4.3.3,6.3-6.4-.2-.2Zm-21.9-20.3-6,6.7.3.2,6-6.7h-.1l-.2-.2Zm-11.3-9.8-5.8,6.9.3.2,5.8-6.9h-.1l-.2-.2Zm-23.3-18.7-5.5,7.2.3.2,5.5-7.1-.2-.2Zm-12-8.9-5.3,7.3.3.2,5.3-7.3h-.3Zm-24.6-17-4.9,7.5.3.2,4.9-7.5h-.3Zm-12.6-8-4.7,7.6.3.2,4.8-7.6-.3-.2Zm-25.7-15.2-4.4,7.9.3.2,4.4-7.9h-.3Zm-13.1-7.1-4.2,8,.3.2,4.2-8-.3-.2Zm-26.8-13.2-3.8,8.2.3.2,3.8-8.2h-.3Zm-13.6-6.1-3.6,8.3h.3l3.6-8.2Zm-27.7-11.3-3.2,8.4h.3l3.2-8.4h-.3Zm-14-5.1-3,8.5h.3l3-8.5h-.3Zm-28.4-9.2-2.6,8.6h.3l2.6-8.6Zm-14.4-4.1-2.4,8.7h.3l2.4-8.7h-.4Zm-29-7.1-1.9,8.8h.3l1.9-8.8h-.4Zm-14.6-3-1.7,8.8h.4l1.7-8.8Zm-29.5-5-1.3,8.9h.4l1.3-8.9h-.4Zm-14.8-2-1.1,8.9h.4l1.1-8.9h-.4Zm-29.7-2.8-.6,9h.4l.6-9h-.4ZM991,9.6l-.4,9h.4l.4-9H991Zm-29.5-.7v0h0Zm0,0v0h0Z" fill="#b3b3b3"/><path d="M939.1,1180.2h-.4a1,1,0,0,1-1-1,1,1,0,0,1,1-1h.4a1,1,0,0,1,0,2Zm44.1,0a1,1,0,0,1,0-2h.4a1,1,0,0,1,1,1,1,1,0,0,1-1,1h-.4Zm-66.3-1.3h-.4a1,1,0,1,1,.1-2h.4a1,1,0,0,1-.1,2Zm88.6,0a1,1,0,0,1-.1-2h.4a1,1,0,1,1,.2,2h-.4Zm-132.7-5.3h-.5a1,1,0,0,1,.3-2h.4a1,1,0,0,1-.2,2Zm176.9,0a1,1,0,0,1-.2-2h.4a1,1,0,1,1,.3,2h-.5Zm-198.8-4h-.6a1,1,0,1,1,.4-2h.4a1,1,0,0,1-.2,2Zm220.7,0a1,1,0,0,1-.2-2h.3a1,1,0,0,1,.4,2h-.6ZM807.6,1159h-.6a1,1,0,0,1,.5-1.9h.4a1,1,0,0,1-.3,2Zm307.1,0a1,1,0,0,1-.3-2h.3a1,1,0,0,1,.6,1.9h-.6Zm-328.4-6.6h-.7a1,1,0,1,1,.6-1.9h.4a1,1,0,0,1-.3,1.9Zm349.7,0a1,1,0,0,1-.3-1.9h.4a1,1,0,1,1,.6,1.9h-.7Zm41.6-15.7a1,1,0,0,1-.4-1.9h.3a1,1,0,1,1,.8,1.8h-.7Zm-432.9,0h-.7a1,1,0,0,1,.8-1.8h.3a1,1,0,0,1-.4,1.9Zm453.2-9.1a1,1,0,0,1-.4-1.9l.3-.2a1,1,0,0,1,.9,1.8l-.3.2Zm-473.5-.1h-.4l-.3-.2a1,1,0,1,1,.9-1.8l.3.2a1,1,0,0,1-.4,1.9Zm512.8-20.6a1,1,0,0,1-.5-1.9h.2a1,1,0,0,1,1.4.3,1,1,0,0,1-.3,1.3h-.8Zm-552.3-.2h-.5l-.3-.2a1,1,0,1,1,1-1.7l.3.2a1,1,0,0,1-.5,1.9Zm571.3-11.3a1,1,0,0,1-.5-1.8l.3-.2a1,1,0,1,1,1.1,1.7l-.3.2Zm-590.4-.2-.5-.2-.3-.2a1,1,0,1,1,1.1-1.7l.3.2a1,1,0,0,1-.5,1.8Zm626.9-25a1,1,0,0,1-.6-1.8l.3-.2a1,1,0,0,1,1.2,1.6l-.3.2Zm-663.6-.3-.6-.2-.3-.2a1,1,0,0,1,1.2-1.6l.3.2a1,1,0,0,1-.6,1.8Zm681.1-13.4a1,1,0,0,1-.6-1.8l.3-.2a1,1,0,0,1,1.3,1.5l-.3.2Zm-698.6-.3-.6-.2-.3-.2a1,1,0,1,1,1.3-1.5l.3.2a1,1,0,0,1-.6,1.8Zm731.9-29.2a1,1,0,0,1-.7-1.7l.3-.3a1,1,0,1,1,1.4,1.4l-.3.2A1,1,0,0,1,1343.5,1026.9Zm-765.2-.4a1,1,0,0,1-.7-.3l-.3-.3a1,1,0,0,1,1.4-1.4l.3.2a1,1,0,0,1-.7,1.7Zm781-15.3a1,1,0,0,1-.7-1.7l.2-.3a1,1,0,0,1,1.4,1.4l-.3.3A1,1,0,0,1,1359.3,1011.2Zm-796.8-.4a.9.9,0,0,1-.7-.3h-.1l-.2-.2a1,1,0,0,1,1.4-1.4l.2.2a1,1,0,0,1,0,1.4A1,1,0,0,1,562.5,1010.8Zm826.3-32.9-.6-.2a1,1,0,0,1-.1-1.4l.2-.3a1,1,0,0,1,1.5,1.3l-.2.3A1,1,0,0,1,1388.8,977.9ZM533,977.6a1,1,0,0,1-.8-.4l-.2-.3a1,1,0,0,1,1.6-1.3l.2.3a1,1,0,0,1-.1,1.4Zm869.6-17.1-.6-.2a1,1,0,0,1-.2-1.4l.2-.3a1,1,0,0,1,1.6,1.2l-.2.3A1,1,0,0,1,1402.6,960.4Zm-883.3-.4a1,1,0,0,1-.8-.4l-.2-.3a1,1,0,0,1,1.6-1.2l.2.3a1,1,0,0,1-.2,1.4Zm908.7-36.2-.5-.2a1,1,0,0,1-.3-1.4l.2-.3a1,1,0,1,1,1.7,1.1l-.2.3A1,1,0,0,1,1427.9,923.8Zm-934-.3a1,1,0,0,1-.8-.5l-.2-.3a1,1,0,1,1,1.7-1.1l.2.3a1,1,0,0,1-.3,1.4Zm945.5-18.7h-.5a1,1,0,0,1-.4-1.4l.2-.3a1,1,0,1,1,1.7,1l-.2.3A1,1,0,0,1,1439.5,904.8Zm-957-.3a1,1,0,0,1-.9-.5l-.2-.3a1,1,0,0,1,1.7-1l.2.3a1,1,0,0,1-.4,1.4Zm977.8-39.2h-.4a1,1,0,0,1-.5-1.3l.2-.3a1,1,0,1,1,1.8.9l-.2.3A1,1,0,0,1,1460.3,865.4Zm-998.5-.1a1,1,0,0,1-.9-.6l-.2-.3a1,1,0,1,1,1.8-.9l.2.3a1,1,0,0,1-.5,1.3ZM1469.5,845h-.4a1,1,0,0,1-.5-1.3v-.3a1,1,0,0,1,1.8.8v.3A1,1,0,0,1,1469.5,845ZM452.7,845a1,1,0,0,1-.9-.6V844a1,1,0,1,1,1.8-.8v.3a1,1,0,0,1-.5,1.3Zm-15.8-41.5a1,1,0,0,1-.9-.7v-.3a1,1,0,0,1,1.9-.6v.3a1,1,0,0,1-.6,1.3Zm1048.5-.1h-.3a1,1,0,0,1-.6-1.3v-.4a1,1,0,1,1,1.9.6v.3A1,1,0,0,1,1485.3,803.3ZM430.2,782.2a1,1,0,0,1-1-.7v-.3a1,1,0,0,1,1.9-.6v.4a1,1,0,0,1-.7,1.2Zm1061.7-.1h-.3a1,1,0,0,1-.7-1.2v-.4a1,1,0,1,1,1.9.6v.3A1,1,0,0,1,1492,782.1ZM430,474.7h-.3a1,1,0,0,1-.7-1.2v-.4a1,1,0,1,1,1.9.6v.3A1,1,0,0,1,430,474.7Zm1061.9-1a1,1,0,0,1-1-.7v-.3a1,1,0,1,1,1.9-.6v.4a1,1,0,0,1-.7,1.2ZM436.6,453.4h-.3a1,1,0,0,1-.6-1.3v-.3a1,1,0,0,1,1.9.6v.3A1,1,0,0,1,436.6,453.4Zm1048.7-1a1,1,0,0,1-.9-.7v-.3a1,1,0,0,1,1.9-.6v.4a1,1,0,0,1-.6,1.3ZM452.3,411.7H452a1,1,0,0,1-.5-1.3V410a1,1,0,1,1,1.8.8v.3A1,1,0,0,1,452.3,411.7Zm1017.1-.8a1,1,0,0,1-.9-.6v-.3a1,1,0,0,1,1.8-.8v.3a1,1,0,0,1-.5,1.3Zm-1008-19.5h-.4a1,1,0,0,1-.5-1.3l.2-.3a1,1,0,0,1,1.8.9l-.2.3A1,1,0,0,1,461.5,391.4Zm998.8-.7a1,1,0,0,1-.9-.6l-.2-.3a1,1,0,1,1,1.8-.9l.2.3a1,1,0,0,1-.5,1.3ZM482.2,351.9h-.5a1,1,0,0,1-.4-1.4l.2-.3a1,1,0,0,1,1.7,1l-.2.3A1,1,0,0,1,482.2,351.9Zm957.4-.5a1,1,0,0,1-.9-.5l-.2-.3a1,1,0,1,1,1.7-1l.2.3a1,1,0,0,1-.4,1.4ZM493.7,332.8l-.5-.2a1,1,0,0,1-.3-1.4l.2-.3a1,1,0,0,1,1.7,1.1l-.2.3A1,1,0,0,1,493.7,332.8Zm934.4-.5a1,1,0,0,1-.8-.5l-.2-.3a1,1,0,1,1,1.7-1.1l.2.3a1,1,0,0,1-.3,1.4Zm-909-36.2-.6-.2a1,1,0,0,1-.2-1.4l.2-.3a1,1,0,0,1,1.6,1.2l-.2.3A1,1,0,0,1,519.1,296.2Zm883.7-.4a1,1,0,0,1-.8-.4l-.2-.3a1,1,0,0,1,1.6-1.2l.2.3a1,1,0,0,1-.2,1.4Zm-870-17.1-.6-.2a1,1,0,0,1-.1-1.4l.2-.3a1,1,0,1,1,1.5,1.3l-.2.3A1,1,0,0,1,532.8,278.7Zm856.3-.3a1,1,0,0,1-.8-.4l-.2-.3a1,1,0,1,1,1.5-1.3l.2.3a1,1,0,0,1-.2,1.4Zm-826.8-33a1,1,0,0,1-.7-1.7l.3-.3a1,1,0,1,1,1.4,1.4l-.3.3A1,1,0,0,1,562.3,245.3Zm797.2-.3a1,1,0,0,1-.7-.3l-.3-.3a1,1,0,0,1,1.4-1.4l.2.3a1,1,0,0,1-.7,1.7ZM578.1,229.5a1,1,0,0,1-.7-.3,1,1,0,0,1,0-1.4h.1l.2-.2a1,1,0,1,1,1.4,1.4l-.2.2A1.1,1.1,0,0,1,578.1,229.5Zm765.7-.2a1,1,0,0,1-.7-.3l-.3-.2a1,1,0,1,1,1.4-1.4l.3.3a1,1,0,0,1-.7,1.7ZM611.3,200.1a1,1,0,0,1-.6-1.8l.3-.2a1,1,0,0,1,1.3,1.6l-.3.2Zm699.2-.3-.6-.2-.3-.2a1,1,0,1,1,1.3-1.6l.3.2a1,1,0,0,1-.6,1.8ZM628.8,186.3a1,1,0,0,1-.6-1.8l.3-.2a1,1,0,0,1,1.2,1.6l-.3.2ZM1293,186l-.6-.2-.3-.2a1,1,0,1,1,1.2-1.6l.3.2a1,1,0,0,1-.6,1.8ZM665.3,161a1,1,0,0,1-.5-1.8l.3-.2a1,1,0,0,1,1.1,1.7l-.3.2Zm591-.3-.5-.2-.3-.2a1,1,0,1,1,1.1-1.7l.3.2a1,1,0,0,1-.5,1.8Zm-572-11.2a1,1,0,0,1-.5-1.9l.3-.2a1,1,0,1,1,1,1.7l-.3.2Zm552.9-.3h-.5l-.3-.2a1,1,0,0,1,1-1.7l.3.2a1,1,0,0,1-.5,1.9ZM723.6,128.8a1,1,0,0,1-.4-1.9l.3-.2a1,1,0,1,1,.9,1.8l-.3.2Zm474.2-.3h-.4l-.3-.2a1,1,0,0,1,.9-1.8l.3.2a1,1,0,0,1-.4,1.9Zm-453.9-8.8a1,1,0,0,1-.4-1.9h.3a1,1,0,0,1,.8,1.8h-.7Zm433.6-.3h-.7a1,1,0,0,1,.8-1.8h.3a1,1,0,0,1-.4,1.9ZM785.4,103.8a1,1,0,0,1-.3-1.9h.4a1,1,0,0,1,.6,1.9h-.7Zm350.3-.3h-.7a1,1,0,0,1,.6-1.9h.4a1,1,0,0,1-.3,1.9ZM806.6,97.2a1,1,0,0,1-.3-2h.4a1,1,0,1,1,.5,1.9h-.6Zm307.9-.3h-.6a1,1,0,1,1,.5-1.9h.4a1,1,0,0,1-.3,2ZM849.8,86.5a1,1,0,0,1-.2-2h.4a1,1,0,1,1,.4,2h-.6Zm221.4-.2h-.6a1,1,0,1,1,.4-2h.3a1,1,0,0,1-.2,2ZM871.7,82.5a1,1,0,0,1-.2-2h.4a1,1,0,0,1,.3,2h-.5Zm177.6-.2h-.5a1,1,0,0,1,.3-2h.4a1,1,0,0,1-.2,2ZM915.9,77.1a1,1,0,0,1-.1-2h.4a1,1,0,0,1,.2,2h-.4Zm89.3-.1h-.4a1,1,0,0,1-.9-1.1,1,1,0,0,1,1.1-.9h.4a1,1,0,0,1-.1,2Zm-67.1-1.3a1,1,0,0,1,0-2h.4a1,1,0,0,1,1,1,1,1,0,0,1-1,1h-.4Zm44.9,0h-.4a1,1,0,0,1-1-1,1,1,0,0,1,1-1h.4a1,1,0,0,1,0,2Z" fill="#b3b3b3"/><path d="M961.3,1181.6H961a2,2,0,0,1,0-4h.4a2,2,0,0,1,0,4Zm-66.6-3.9h-.6a2,2,0,0,1,.4-4h.4a2,2,0,0,1-.2,4Zm132.8,0a2,2,0,0,1-.2-4h.4a2,2,0,1,1,.5,4h-.6Zm-198.5-11.9h-.8a2,2,0,0,1,.9-3.9h.4a2,2,0,0,1-.5,3.9Zm264.1,0a2,2,0,0,1-.5-3.9h.3a2,2,0,0,1,1,3.9h-.8Zm-327.9-19.8h-1.1a2,2,0,0,1,1.4-3.7h.3a2,2,0,0,1-.7,3.9Zm391.6,0a2,2,0,0,1-.7-3.9h.3a2,2,0,0,1,2.6,1.1,2,2,0,0,1-1.1,2.6h-1.1Zm60.7-27.3a2,2,0,0,1-.9-3.8l.3-.2a2,2,0,1,1,1.9,3.5l-.3.2Zm-513.3-.1-.9-.2-.3-.2a2,2,0,1,1,1.9-3.5l.3.2a2,2,0,0,1-.9,3.8Zm570.3-34.4a2,2,0,0,1-1.1-3.7l.3-.2a2,2,0,1,1,2.3,3.3l-.3.2A2,2,0,0,1,1274.6,1084.1Zm-627.5-.2a2,2,0,0,1-1.1-.4l-.3-.2a2,2,0,0,1,2.3-3.3l.3.2a2,2,0,0,1-1.1,3.6Zm680-40.9a2,2,0,0,1-1.3-3.5l.3-.2a2,2,0,0,1,2.7,3l-.3.2A2,2,0,0,1,1327.1,1043Zm-732.5-.3a2,2,0,0,1-1.3-.5l-.3-.2a2,2,0,0,1,2.6-3l.3.3a2,2,0,0,1-1.3,3.5Zm779.7-46.8a2,2,0,0,1-1.5-3.3l.3-.3a2,2,0,1,1,3,2.7l-.2.3A2,2,0,0,1,1374.4,995.9Zm-826.9-.4a2,2,0,0,1-1.5-.7l-.2-.3a2,2,0,1,1,3-2.7l.2.3a2,2,0,0,1-1.5,3.3Zm868.2-52.1a2,2,0,0,1-1.6-3.1l.2-.3a2,2,0,0,1,3.3,2.3l-.2.3A2,2,0,0,1,1415.6,943.4ZM506.3,943a2,2,0,0,1-1.6-.9l-.2-.3a2,2,0,1,1,3.3-2.3l.2.3a2,2,0,0,1-1.6,3.1Zm944-56.8-.9-.2a2,2,0,0,1-.8-2.7l.2-.3a2,2,0,0,1,3.5,1.9l-.2.3A2,2,0,0,1,1450.3,886.3Zm-978.6-.2A2,2,0,0,1,470,885l-.2-.3a2,2,0,0,1,3.5-1.9l.2.3a2,2,0,0,1-.8,2.7Zm-27.4-60.7a2,2,0,0,1-1.9-1.3v-.3a2,2,0,0,1,1.1-2.6,2,2,0,0,1,2.6,1.1v.3a2,2,0,0,1-1.2,2.6Zm1033.5-.1h-.7a2,2,0,0,1-1.1-2.6v-.3a2,2,0,0,1,3.7,1.4v.4A2,2,0,0,1,1477.8,825.3ZM424.5,761.7a2,2,0,0,1-1.9-1.5v-.4a2,2,0,1,1,3.9-.9v.3a2,2,0,0,1-1.5,2.4Zm1073.3-.1h-.5a2,2,0,0,1-1.5-2.4v-.4a2,2,0,1,1,3.9,1v.3A2,2,0,0,1,1497.7,761.6ZM424.2,497.2h-.5a2,2,0,0,1-1.5-2.4v-.4a2,2,0,1,1,3.9,1v.3A2,2,0,0,1,424.2,497.2Zm1073.4-1a2,2,0,0,1-1.9-1.5v-.4a2,2,0,1,1,3.9-1v.4a2,2,0,0,1-1.5,2.4ZM444,433.4h-.7a2,2,0,0,1-1.2-2.6v-.3a2,2,0,1,1,3.7,1.4v.3A2,2,0,0,1,444,433.4Zm1033.7-.9a2,2,0,0,1-1.9-1.3v-.3a2,2,0,0,1,3.7-1.4v.3a2,2,0,0,1-1.1,2.6Zm-1006.3-60-.9-.2a2,2,0,0,1-.8-2.7l.2-.3a2,2,0,1,1,3.5,1.9l-.2.3A2,2,0,0,1,471.5,372.4Zm978.9-.6a2,2,0,0,1-1.8-1.1l-.2-.3a2,2,0,1,1,3.5-1.9l.2.3a2,2,0,0,1-.8,2.7ZM506,315.3a2,2,0,0,1-1.6-3.1l.2-.3a2,2,0,1,1,3.3,2.3l-.2.3A2,2,0,0,1,506,315.3Zm909.8-.4a2,2,0,0,1-1.7-.9l-.2-.3a2,2,0,0,1,3.3-2.3l.2.3a2,2,0,0,1-1.6,3.1ZM547.2,262.7a2,2,0,0,1-1.5-3.3l.2-.3a2,2,0,0,1,3,2.6l-.2.3A2,2,0,0,1,547.2,262.7Zm827.4-.3a2,2,0,0,1-1.5-.7l-.2-.3a2,2,0,1,1,3-2.7l.3.3a2,2,0,0,1-1.5,3.3ZM594.4,215.5a2,2,0,0,1-1.3-3.5l.3-.2a2,2,0,0,1,2.6,3l-.3.2A2,2,0,0,1,594.4,215.5Zm733.1-.3a2,2,0,0,1-1.3-.5l-.3-.3a2,2,0,0,1,2.7-3l.3.2a2,2,0,0,1-1.3,3.5ZM646.8,174.3a2,2,0,0,1-1.1-3.6l.3-.2a2,2,0,1,1,2.3,3.3l-.3.2A2,2,0,0,1,646.8,174.3Zm628.1-.3a2,2,0,0,1-1.1-.4l-.3-.2a2,2,0,0,1,2.3-3.3l.3.2a2,2,0,0,1-1.1,3.6ZM703.8,139.7a2,2,0,0,1-.9-3.8l.3-.2a2,2,0,1,1,1.9,3.5l-.3.2Zm514-.3-.9-.2-.3-.2a2,2,0,0,1,1.9-3.5l.3.2a2,2,0,0,1-.9,3.8ZM764.4,112.3a2,2,0,0,1-.7-3.9h.3a2,2,0,1,1,1.4,3.7h-1.1Zm392.3-.4h-1a2,2,0,1,1,1.4-3.7h.4a2,2,0,0,1-.7,3.9ZM828.1,92.4a2,2,0,0,1-.5-3.9h.4a2,2,0,0,1,1,3.9h-.8Zm264.9-.3h-.8a2,2,0,1,1,1-3.9h.3a2,2,0,0,1-.5,3.9ZM893.8,80.4a2,2,0,0,1-.2-4h.4a2,2,0,1,1,.5,4h-.6Zm133.6-.1h-.6a2,2,0,1,1,.5-4h.3a2,2,0,0,1-.2,4Zm-66.6-3.9h-.4a2,2,0,0,1,0-4h.4a2,2,0,0,1,0,4Z" fill="none" stroke="#b3b3b3" stroke-miterlimit="10"/><line x1="1918.5" y1="628.5" x2="1549.5" y2="628.5" fill="none" stroke="#b3b3b3" stroke-miterlimit="10"/><line x1="1432.5" y1="628.5" x2="1480.5" y2="628.5" fill="none" stroke="#b3b3b3" stroke-miterlimit="10"/><path d="M1417.4,738.7c20.2-52.7,20.2-178.7,0-223.4" fill="none" stroke="#b3b3b3" stroke-miterlimit="10" stroke-width="1.28"/><line x1="490.5" y1="625.4" x2="442.5" y2="625.4" fill="none" stroke="#b3b3b3" stroke-miterlimit="10"/><path d="M505.6,515.2c-20.2,52.7-20.2,178.7,0,223.4" fill="none" stroke="#b3b3b3" stroke-miterlimit="10" stroke-width="1.28"/><line x1="378.5" y1="622.5" x2="1.5" y2="622.5" fill="none" stroke="#b3b3b3" stroke-miterlimit="10"/></svg>