<svg xmlns="http://www.w3.org/2000/svg" viewBox="0 0 1920 1080"><defs><style>.cls-1{fill:#fff;}.cls-1,.cls-2{stroke:#1d1d1b;stroke-miterlimit:10;stroke-width:4px;}.cls-2{fill:none;}</style></defs><title>Tavola disegno 1</title><g id="Livello_1" data-name="Livello 1"><rect class="cls-1" width="1920" height="1080"/><line class="cls-2" x1="1728.1" y1="660.1" x2="1263.1" y2="660.1"/><line class="cls-2" x1="1263.1" y1="1080" x2="1263.1" y2="660.1"/><line class="cls-2" x1="1378.6" y1="523.6" x2="1728.1" y2="523.6"/><line class="cls-2" x1="1263.1" y1="433.6" x2="1378.6" y2="523.6"/><line class="cls-2" x1="1263.1" x2="1263.1" y2="432.1"/><rect class="cls-2" y="540" width="993" height="99.09"/><rect class="cls-2" x="1093.6" y="1062.1" width="169.5" height="30"/><rect class="cls-2" x="1263.1" y="461.3" width="115.5" height="34.5" transform="translate(573.1 -710.8) rotate(37.9)"/><rect class="cls-1" x="1252.6" y="759.1" width="25.5" height="116.99"/><rect class="cls-1" x="1728.1" width="191.9" height="660.08"/><rect class="cls-1" x="1720.6" y="532.6" width="16.5" height="106.49"/><rect class="cls-1" x="1444.6" y="52.6" width="157.5" height="379.48"/><rect class="cls-1" x="1263.1" y="973" width="360" height="104.1"/><rect class="cls-1" x="1623.1" y="973" width="303" height="104.1"/><rect class="cls-1" x="1265.3" y="876.1" width="357.7" height="39"/><rect class="cls-1" x="1384.6" y="955.6" width="138.7" height="34.5"/><rect class="cls-1" x="1737.1" y="955.6" width="121.5" height="34.5"/><rect class="cls-1" x="139.6" y="52.6" width="754.6" height="110.28"/><rect class="cls-1" x="993" y="57.1" width="145.6" height="263.93"/><rect class="cls-1" x="144.1" y="216" width="168" height="274.54"/><rect class="cls-1" x="312.1" y="372.1" width="555" height="118.49"/><rect class="cls-1" x="100.6" y="718.6" width="357" height="91.5"/><rect class="cls-1" x="100.6" y="844.6" width="97.5" height="194.99"/><rect class="cls-1" x="436.6" y="915.1" width="381" height="109.94"/></g></svg>